<?xml version="1.0" encoding="utf-8"?>
<!-- Generator: Adobe Illustrator 16.0.0, SVG Export Plug-In . SVG Version: 6.00 Build 0)  -->
<!DOCTYPE svg PUBLIC "-//W3C//DTD SVG 1.1//EN" "http://www.w3.org/Graphics/SVG/1.1/DTD/svg11.dtd">
<svg version="1.1" id="Layer_1" xmlns="http://www.w3.org/2000/svg" xmlns:xlink="http://www.w3.org/1999/xlink" x="0px" y="0px"
	 width="34.937px" height="33.98px" viewBox="0 0 34.937 33.98" enable-background="new 0 0 34.937 33.98" xml:space="preserve">
<path fill="#A8764C" d="M13.108,17.701h1.55l-0.775-2.081L13.108,17.701z"/>
<path fill="#A8764C" d="M21.224,15.813c0-0.316-0.236-0.53-0.588-0.53h-1.455v1.051h1.455
	C20.993,16.334,21.224,16.129,21.224,15.813z"/>
<path fill="#A8764C" d="M20.68,17.537h-1.499v1.134h1.499c0.417,0,0.657-0.205,0.657-0.563
	C21.336,17.823,21.133,17.537,20.68,17.537z"/>
<path fill="#A8764C" d="M17.469,0C7.821,0,0,7.606,0,16.99c0,9.383,7.821,16.99,17.469,16.99c9.647,0,17.468-7.607,17.468-16.99
	C34.937,7.606,27.116,0,17.469,0z M10.283,19.795c0,0.048-0.04,0.087-0.089,0.087H6.516c-0.049,0-0.089-0.039-0.089-0.087v-5.628
	c0-0.047,0.04-0.086,0.089-0.086h1.232c0.049,0,0.089,0.039,0.089,0.086v4.487h2.357c0.049,0,0.089,0.039,0.089,0.087V19.795z
	 M16.887,19.882c0,0-0.001,0-0.001,0H15.48c-0.038,0-0.071-0.022-0.084-0.057l-0.334-0.896h-2.356l-0.343,0.897
	c-0.013,0.034-0.046,0.056-0.083,0.056h-1.405c-0.029,0-0.057-0.014-0.074-0.038c-0.016-0.023-0.02-0.054-0.009-0.081l2.238-5.627
	c0.013-0.034,0.046-0.056,0.083-0.056h1.544c0.037,0,0.07,0.022,0.083,0.056l2.224,5.613c0.009,0.014,0.014,0.029,0.014,0.046
	C16.976,19.844,16.937,19.882,16.887,19.882z M21,19.882H17.86c-0.049,0-0.089-0.039-0.089-0.087v-5.628
	c0-0.047,0.04-0.086,0.089-0.086h3.045c0.845,0,1.755,0.476,1.755,1.521c0,0.659-0.362,1.091-0.786,1.284
	c0.528,0.212,0.898,0.764,0.898,1.391C22.772,19.252,22.077,19.882,21,19.882z M26.105,19.983c-1.033,0-1.9-0.318-2.51-0.92
	c-0.03-0.03-0.034-0.077-0.009-0.111l0.668-0.911c0.016-0.021,0.04-0.034,0.066-0.037c0.027-0.001,0.053,0.008,0.071,0.027
	c0.27,0.273,0.859,0.732,1.774,0.732c0.634,0,0.918-0.27,0.918-0.538c0-0.336-0.527-0.458-1.137-0.598
	c-0.978-0.226-2.195-0.507-2.195-1.832c0-1.042,0.96-1.799,2.284-1.799c0.94,0,1.72,0.272,2.316,0.808
	c0.034,0.03,0.039,0.081,0.011,0.116l-0.686,0.878c-0.015,0.02-0.038,0.032-0.063,0.034c-0.025,0.002-0.05-0.006-0.068-0.022
	c-0.418-0.376-1.01-0.593-1.623-0.593c-0.46,0-0.735,0.179-0.735,0.479c0,0.285,0.499,0.4,1.077,0.535
	c0.948,0.22,2.247,0.521,2.247,1.862C28.511,19.259,27.589,19.983,26.105,19.983z"/>
</svg>
